{
	"asset":{
		"generator":"Khronos glTF Blender I/O v4.1.63",
		"version":"2.0"
	},
	"scene":0,
	"scenes":[
		{
			"name":"Scene",
			"nodes":[
				0
			]
		}
	],
	"nodes":[
		{
			"mesh":0,
			"name":"Circle"
		}
	],
	"materials":[
		{
			"doubleSided":true,
			"name":"Material.001",
			"pbrMetallicRoughness":{
				"baseColorFactor":[
					0.9743309617042542,
					0.9743309617042542,
					0.9743309617042542,
					1
				],
				"metallicFactor":0,
				"roughnessFactor":0.5
			}
		},
		{
			"doubleSided":true,
			"name":"Material.002",
			"pbrMetallicRoughness":{
				"baseColorTexture":{
					"index":0
				},
				"metallicFactor":0,
				"roughnessFactor":0.5
			}
		},
		{
			"doubleSided":true,
			"name":"Material.003",
			"pbrMetallicRoughness":{
				"baseColorTexture":{
					"index":1
				},
				"metallicFactor":0,
				"roughnessFactor":0.5
			}
		},
		{
			"doubleSided":true,
			"name":"Material.004",
			"pbrMetallicRoughness":{
				"baseColorTexture":{
					"index":2
				},
				"metallicFactor":0,
				"roughnessFactor":0.5
			}
		}
	],
	"meshes":[
		{
			"name":"Circle",
			"primitives":[
				{
					"attributes":{
						"POSITION":0,
						"NORMAL":1,
						"TEXCOORD_0":2,
						"TEXCOORD_1":3
					},
					"indices":4,
					"material":0
				},
				{
					"attributes":{
						"POSITION":5,
						"NORMAL":6,
						"TEXCOORD_0":7,
						"TEXCOORD_1":8
					},
					"indices":9,
					"material":1
				},
				{
					"attributes":{
						"POSITION":10,
						"NORMAL":11,
						"TEXCOORD_0":12,
						"TEXCOORD_1":13
					},
					"indices":9,
					"material":2
				},
				{
					"attributes":{
						"POSITION":14,
						"NORMAL":15,
						"TEXCOORD_0":16,
						"TEXCOORD_1":17
					},
					"indices":4,
					"material":3
				}
			]
		}
	],
	"textures":[
		{
			"sampler":0,
			"source":0
		},
		{
			"sampler":0,
			"source":1
		},
		{
			"sampler":0,
			"source":2
		}
	],
	"images":[
		{
			"mimeType":"image/png",
			"name":"Screenshot 2024-07-07 001028",
			"uri":"Screenshot%202024-07-07%20001028.png"
		},
		{
			"mimeType":"image/png",
			"name":"Screenshot 2024-07-07 000840",
			"uri":"Screenshot%202024-07-07%20000840.png"
		},
		{
			"mimeType":"image/png",
			"name":"Screenshot 2024-07-07 001311",
			"uri":"Screenshot%202024-07-07%20001311.png"
		}
	],
	"accessors":[
		{
			"bufferView":0,
			"componentType":5126,
			"count":3,
			"max":[
				0.8660253882408142,
				0,
				0.5
			],
			"min":[
				-0.8660253882408142,
				0,
				-1
			],
			"type":"VEC3"
		},
		{
			"bufferView":1,
			"componentType":5126,
			"count":3,
			"type":"VEC3"
		},
		{
			"bufferView":2,
			"componentType":5126,
			"count":3,
			"type":"VEC2"
		},
		{
			"bufferView":3,
			"componentType":5126,
			"count":3,
			"type":"VEC2"
		},
		{
			"bufferView":4,
			"componentType":5123,
			"count":3,
			"type":"SCALAR"
		},
		{
			"bufferView":5,
			"componentType":5126,
			"count":3,
			"max":[
				0.8660253882408142,
				1.307175636291504,
				0.5
			],
			"min":[
				-0.8660253882408142,
				0,
				0
			],
			"type":"VEC3"
		},
		{
			"bufferView":6,
			"componentType":5126,
			"count":3,
			"type":"VEC3"
		},
		{
			"bufferView":7,
			"componentType":5126,
			"count":3,
			"type":"VEC2"
		},
		{
			"bufferView":8,
			"componentType":5126,
			"count":3,
			"type":"VEC2"
		},
		{
			"bufferView":9,
			"componentType":5123,
			"count":3,
			"type":"SCALAR"
		},
		{
			"bufferView":10,
			"componentType":5126,
			"count":3,
			"max":[
				0,
				1.307175636291504,
				0.5
			],
			"min":[
				-0.8660253882408142,
				0,
				-1
			],
			"type":"VEC3"
		},
		{
			"bufferView":11,
			"componentType":5126,
			"count":3,
			"type":"VEC3"
		},
		{
			"bufferView":12,
			"componentType":5126,
			"count":3,
			"type":"VEC2"
		},
		{
			"bufferView":13,
			"componentType":5126,
			"count":3,
			"type":"VEC2"
		},
		{
			"bufferView":14,
			"componentType":5126,
			"count":3,
			"max":[
				0.8660253882408142,
				1.307175636291504,
				0.5
			],
			"min":[
				0,
				0,
				-1
			],
			"type":"VEC3"
		},
		{
			"bufferView":15,
			"componentType":5126,
			"count":3,
			"type":"VEC3"
		},
		{
			"bufferView":16,
			"componentType":5126,
			"count":3,
			"type":"VEC2"
		},
		{
			"bufferView":17,
			"componentType":5126,
			"count":3,
			"type":"VEC2"
		}
	],
	"bufferViews":[
		{
			"buffer":0,
			"byteLength":36,
			"byteOffset":0,
			"target":34962
		},
		{
			"buffer":0,
			"byteLength":36,
			"byteOffset":36,
			"target":34962
		},
		{
			"buffer":0,
			"byteLength":24,
			"byteOffset":72,
			"target":34962
		},
		{
			"buffer":0,
			"byteLength":24,
			"byteOffset":96,
			"target":34962
		},
		{
			"buffer":0,
			"byteLength":6,
			"byteOffset":120,
			"target":34963
		},
		{
			"buffer":0,
			"byteLength":36,
			"byteOffset":128,
			"target":34962
		},
		{
			"buffer":0,
			"byteLength":36,
			"byteOffset":164,
			"target":34962
		},
		{
			"buffer":0,
			"byteLength":24,
			"byteOffset":200,
			"target":34962
		},
		{
			"buffer":0,
			"byteLength":24,
			"byteOffset":224,
			"target":34962
		},
		{
			"buffer":0,
			"byteLength":6,
			"byteOffset":248,
			"target":34963
		},
		{
			"buffer":0,
			"byteLength":36,
			"byteOffset":256,
			"target":34962
		},
		{
			"buffer":0,
			"byteLength":36,
			"byteOffset":292,
			"target":34962
		},
		{
			"buffer":0,
			"byteLength":24,
			"byteOffset":328,
			"target":34962
		},
		{
			"buffer":0,
			"byteLength":24,
			"byteOffset":352,
			"target":34962
		},
		{
			"buffer":0,
			"byteLength":36,
			"byteOffset":376,
			"target":34962
		},
		{
			"buffer":0,
			"byteLength":36,
			"byteOffset":412,
			"target":34962
		},
		{
			"buffer":0,
			"byteLength":24,
			"byteOffset":448,
			"target":34962
		},
		{
			"buffer":0,
			"byteLength":24,
			"byteOffset":472,
			"target":34962
		}
	],
	"samplers":[
		{
			"magFilter":9729,
			"minFilter":9987
		}
	],
	"buffers":[
		{
			"byteLength":496,
			"uri":"mystery.bin"
		}
	]
}
